<svg width="50" height="50" viewBox="0 0 50 50" fill="none" xmlns="http://www.w3.org/2000/svg">
<rect width="50" height="50" rx="25" fill="white"/>
<path d="M24.4441 18.4905V18.6113V26.8396C24.4441 27.157 24.7013 27.4146 25.0191 27.4146C25.3369 27.4146 25.5941 27.157 25.5941 26.8396V18.6113V18.4905L25.6795 18.5759L27.4057 20.3021C27.518 20.4144 27.6651 20.4704 27.8125 20.4704C27.9598 20.4704 28.1069 20.4144 28.2192 20.3021L28.2192 20.3021C28.4438 20.0779 28.4438 19.7134 28.2192 19.4891L28.2192 19.4891L25.4263 16.6958L24.4441 18.4905ZM24.4441 18.4905L24.3588 18.5759M24.4441 18.4905L24.3588 18.5759M24.3588 18.5759L22.6325 20.3021C22.4079 20.5268 22.0441 20.5268 21.8195 20.3021L21.8194 20.3021C21.5948 20.0779 21.5948 19.7134 21.8194 19.4891L21.8195 19.4891M24.3588 18.5759L21.8195 19.4891M21.8195 19.4891L24.6128 16.6958C24.8374 16.4712 25.2012 16.4711 25.4263 16.6958L21.8195 19.4891ZM27.99 21.6492H29.6958C30.7023 21.6492 31.5208 22.4676 31.5212 23.4742C31.5212 23.4742 31.5212 23.4742 31.5212 23.4742V31.6475C31.5212 32.6536 30.7023 33.4725 29.6962 33.4725H20.3008C19.2946 33.4725 18.4758 32.6536 18.4758 31.6475V23.4742C18.4758 22.468 19.2946 21.6492 20.3008 21.6492H22.007C22.3248 21.6492 22.582 21.9064 22.582 22.2242C22.582 22.542 22.3248 22.7992 22.007 22.7992H20.3008C19.9286 22.7992 19.6258 23.102 19.6258 23.4742V31.6475C19.6258 32.0197 19.9286 32.3225 20.3008 32.3225H29.6962C30.0684 32.3225 30.3712 32.0197 30.3712 31.6475V23.4742C30.3712 23.102 30.0684 22.7992 29.6962 22.7992H27.99C27.6725 22.7992 27.415 22.5419 27.415 22.2242C27.415 21.9064 27.6725 21.6492 27.99 21.6492Z" fill="black" stroke="white" stroke-width="0.1"/>
</svg>
