<svg width="10" height="10" viewBox="0 0 10 10" fill="none" xmlns="http://www.w3.org/2000/svg">
<g clip-path="url(#clip0_5588_2083)">
<rect width="10" height="10" transform="matrix(4.37114e-08 -1 -1 -4.37114e-08 10 10)" fill="white"/>
<path d="M2.15129 5.00003C2.15129 5.17925 2.21972 5.35845 2.35629 5.49509L6.6561 9.79486C6.92963 10.0684 7.37309 10.0684 7.6465 9.79486C7.91992 9.52145 7.91992 9.07807 7.6465 8.80452L3.84179 5.00003L7.64637 1.19552C7.91978 0.921999 7.91978 0.478663 7.64637 0.205275C7.37296 -0.0683794 6.92949 -0.0683794 6.65597 0.205275L2.35616 4.50498C2.21956 4.64168 2.15129 4.82088 2.15129 5.00003Z" fill="black"/>
</g>
<defs>
<clipPath id="clip0_5588_2083">
<rect width="10" height="10" fill="white" transform="matrix(4.37114e-08 -1 -1 -4.37114e-08 10 10)"/>
</clipPath>
</defs>
</svg>
