<svg width="15" height="14" viewBox="0 0 15 14" fill="none" xmlns="http://www.w3.org/2000/svg">
<path d="M14.2039 0.195479C14.0984 0.0899565 13.9434 0.050906 13.8005 0.0937696L1.39084 3.81668C0.843972 3.98073 0.476562 4.47453 0.476562 5.04566C0.476562 5.60886 0.854763 6.11027 1.39633 6.26502L6.63702 7.76235L8.13435 13.003C8.28909 13.5446 8.7905 13.9228 9.35392 13.9228C9.92483 13.9228 10.4186 13.5554 10.5827 13.0085L14.3056 0.598857C14.3485 0.455933 14.3094 0.301002 14.2039 0.195479ZM1.28786 5.04547C1.28786 4.83559 1.42291 4.65408 1.62395 4.59377L12.4925 1.33319L6.84709 6.97863L1.61919 5.48495C1.42413 5.42919 1.28786 5.24857 1.28786 5.04547ZM9.80562 12.7754C9.74532 12.9765 9.5638 13.1115 9.3537 13.1115C9.1508 13.1115 8.97018 12.9753 8.91444 12.7802L7.42076 7.55228L13.0662 1.90683L9.80562 12.7754Z" fill="black"/>
</svg>
