<svg width="15" height="15" viewBox="0 0 15 15" fill="none" xmlns="http://www.w3.org/2000/svg">
<path d="M10.8317 14.6425C8.40444 14.6425 5.81237 13.7506 3.7857 11.724C1.7624 9.70068 0.867188 7.11034 0.867188 4.67799C0.867188 2.5343 2.60153 0.796387 4.74879 0.796387C4.91467 0.796387 5.06382 0.897366 5.12542 1.05138L6.86341 5.39634C6.94662 5.60435 6.84545 5.84042 6.63746 5.92363L4.72829 6.68728C4.86334 8.88368 6.6264 10.6466 8.82245 10.7815L9.58613 8.87232C9.66915 8.66465 9.90513 8.5631 10.1134 8.64634L14.4583 10.3843C14.6123 10.4459 14.7133 10.5951 14.7133 10.7609C14.7133 12.9046 12.979 14.6425 10.8317 14.6425ZM4.47882 1.61931C2.92523 1.75375 1.67849 3.05653 1.67849 4.67799C1.67849 7.12292 2.63057 9.42151 4.35939 11.1503C6.08819 12.8791 8.38679 13.8312 10.8317 13.8312C12.4527 13.8312 13.7559 12.5852 13.8904 11.0309L10.1887 9.55024L9.47038 11.3461C9.4088 11.5001 9.25963 11.6011 9.09375 11.6011C6.23449 11.6011 3.90866 9.27524 3.90866 6.41641C3.90866 6.25055 4.00964 6.10092 4.16365 6.03935L5.95949 5.321L4.47882 1.61931Z" fill="white"/>
</svg>
