<svg width="18" height="18" viewBox="0 0 18 18" fill="none" xmlns="http://www.w3.org/2000/svg">
<path d="M13.0065 10.6706C12.9167 10.6155 12.815 10.5531 12.6925 10.4726C12.6241 10.4275 12.5381 10.3658 12.447 10.3006C11.9794 9.96545 11.6251 9.72826 11.3234 9.72826C11.2528 9.72826 11.186 9.74132 11.125 9.76698C10.8608 9.87808 10.6438 10.1749 10.4339 10.4619C10.357 10.567 10.2469 10.7176 10.1801 10.7849C9.91518 10.7323 9.35633 10.3543 8.75328 9.69591C8.14951 9.03675 7.80325 8.42592 7.75571 8.13733C7.81726 8.06414 7.95622 7.94308 8.05313 7.85856C8.31502 7.6303 8.58582 7.39427 8.68815 7.10665C8.81869 6.73711 8.57945 6.29515 8.19949 5.66319C8.13971 5.56372 8.08322 5.46978 8.04223 5.3957C7.96822 5.26142 7.91102 5.15032 7.86055 5.0524C7.65338 4.65043 7.51651 4.38477 7.00219 4.38477C6.66838 4.38477 6.19643 4.72915 5.87675 5.07068C5.41215 5.56712 5.15625 6.14027 5.15625 6.68568C5.15713 8.16701 5.91437 9.86482 7.23382 11.3455C7.23608 11.3479 7.23835 11.3486 7.24068 11.3511C8.59687 12.7916 10.1528 13.6155 11.5096 13.6155H11.5101C12.009 13.6155 12.5342 13.3394 12.9889 12.8324C13.3019 12.4834 13.6178 11.9719 13.6178 11.6077C13.6178 11.0462 13.3746 10.8969 13.0065 10.6706ZM11.5097 12.8502C10.354 12.8493 8.94423 12.0846 7.73784 10.8047C6.56532 9.4874 5.86492 7.9481 5.86418 6.68645C5.86418 5.92329 6.77128 5.19769 7.00849 5.15793C7.05695 5.15816 7.08236 5.16129 7.09447 5.16353C7.12583 5.20295 7.18816 5.3239 7.24366 5.4316C7.29388 5.52906 7.35642 5.6504 7.43606 5.79488C7.4842 5.88194 7.54423 5.98176 7.60776 6.08741C7.728 6.28742 7.96971 6.68946 8.01045 6.86108C7.94231 6.96638 7.7309 7.15063 7.61155 7.25465C7.30606 7.52094 7.04222 7.75087 7.04222 8.07581C7.04297 8.86073 7.969 9.93268 8.25279 10.2425C8.53659 10.5524 9.51844 11.5634 10.2389 11.5641C10.5346 11.5631 10.7443 11.2763 10.9872 10.9441C11.083 10.8132 11.2528 10.581 11.3496 10.507C11.5066 10.5511 11.8753 10.8153 12.0587 10.9467C12.1555 11.0161 12.2468 11.0816 12.3271 11.1345C12.459 11.2211 12.5701 11.2894 12.6594 11.3442C12.758 11.4048 12.8688 11.4729 12.9049 11.5071C12.907 11.5203 12.9098 11.5481 12.91 11.6009C12.8733 11.8597 12.2085 12.8493 11.5097 12.8502Z" fill="black"/>
<path d="M16.6925 8.97549C16.6659 6.95302 15.8441 5.04189 14.3786 3.59412C12.886 2.11966 10.9157 1.30762 8.83076 1.30762C6.81809 1.30762 4.93527 2.07265 3.52904 3.46175C2.28117 4.69444 1.51558 6.33851 1.37317 8.09114C1.2381 9.754 1.66663 11.4368 2.58167 12.8516L1.33214 16.1881C1.2797 16.3282 1.31653 16.4856 1.4259 16.5887C1.49777 16.6565 1.59192 16.6922 1.68754 16.6922C1.7374 16.6922 1.78771 16.678 1.83541 16.658L5.08972 15.2899C6.33206 16.0538 7.75261 16.4474 9.21128 16.4474H9.21143C11.2237 16.4474 13.1065 15.6915 14.5126 14.3026C15.945 12.8876 16.7192 11.0016 16.6925 8.97549ZM13.9767 13.7824C12.7137 15.0301 11.0213 15.7172 9.21124 15.7171C7.83323 15.7171 6.49254 15.3187 5.33408 14.5649C5.27127 14.524 5.19868 14.5032 5.12568 14.5032C5.07556 14.5032 5.02524 14.513 4.97777 14.5329L2.34716 15.6351L3.3587 12.9341C3.40102 12.821 3.38564 12.6948 3.31741 12.5949C1.45814 9.8739 1.77248 6.25546 4.06481 3.99104C5.32791 2.7433 7.02048 2.05611 8.83076 2.05611C10.7133 2.05611 12.4933 2.79027 13.8428 4.12338C15.1679 5.43234 15.9109 7.15897 15.9349 8.98522C15.9589 10.8077 15.2634 12.5114 13.9767 13.7824Z" fill="black"/>
</svg>
